<svg xmlns="http://www.w3.org/2000/svg" viewBox="0 0 1100 560" role="img">
<title>Mixed-lifetime memory retention</title>
<rect width="1100" height="560" fill="#ffffff"/>
<g font-family="system-ui,Segoe UI,sans-serif" fill="#0f172a">
<text x="92" y="40" font-size="25" font-weight="650">Mixed-lifetime memory retention</text>
<text x="92" y="66" font-size="14" fill="#475569">Resident MiB · not a fragmentation or leak rate</text>
<path d="M92,442.0h760" stroke="#e2e8f0"/>
<text x="80" y="447.0" text-anchor="end" font-size="13">0</text>
<path d="M92,372.0h760" stroke="#e2e8f0"/>
<text x="80" y="377.0" text-anchor="end" font-size="13">11</text>
<path d="M92,302.0h760" stroke="#e2e8f0"/>
<text x="80" y="307.0" text-anchor="end" font-size="13">23</text>
<path d="M92,232.0h760" stroke="#e2e8f0"/>
<text x="80" y="237.0" text-anchor="end" font-size="13">34</text>
<path d="M92,162.0h760" stroke="#e2e8f0"/>
<text x="80" y="167.0" text-anchor="end" font-size="13">46</text>
<path d="M92,92.0h760" stroke="#e2e8f0"/>
<text x="80" y="97.0" text-anchor="end" font-size="13">57</text>
<text x="168.0" y="465" text-anchor="middle" font-size="14">dense</text>
<text x="320.0" y="465" text-anchor="middle" font-size="14">sparse</text>
<text x="472.0" y="465" text-anchor="middle" font-size="14">churn_dense</text>
<text x="624.0" y="465" text-anchor="middle" font-size="14">churn_sparse</text>
<text x="776.0" y="465" text-anchor="middle" font-size="14">freed</text>
<circle cx="168.0" cy="233.41244661378892" r="3.5" fill="#64748b"/>
<circle cx="320.0" cy="233.41244661378892" r="3.5" fill="#64748b"/>
<circle cx="472.0" cy="225.30918242830998" r="3.5" fill="#64748b"/>
<circle cx="624.0" cy="225.30918242830998" r="3.5" fill="#64748b"/>
<circle cx="776.0" cy="225.30918242830998" r="3.5" fill="#64748b"/>
<polyline points="168.0,233.41244661378892 320.0,233.41244661378892 472.0,225.30918242830998 624.0,225.30918242830998 776.0,225.30918242830998" fill="none" stroke="#64748b" stroke-width="2.5" stroke-dasharray="7 5"/>
<path d="M880,115h28" stroke="#64748b" stroke-width="3" stroke-dasharray="7 5"/>
<text x="880" y="133" font-size="12">standard / Native</text>
<circle cx="168.0" cy="233.41244661378892" r="3.5" fill="#64748b"/>
<circle cx="320.0" cy="233.41244661378892" r="3.5" fill="#64748b"/>
<circle cx="472.0" cy="225.4045149481391" r="3.5" fill="#64748b"/>
<circle cx="624.0" cy="225.4045149481391" r="3.5" fill="#64748b"/>
<circle cx="776.0" cy="225.4045149481391" r="3.5" fill="#64748b"/>
<polyline points="168.0,233.41244661378892 320.0,233.41244661378892 472.0,225.4045149481391 624.0,225.4045149481391 776.0,225.4045149481391" fill="none" stroke="#64748b" stroke-width="2.5"/>
<path d="M880,149h28" stroke="#64748b" stroke-width="3"/>
<text x="880" y="167" font-size="12">standard / UniMemory</text>
<circle cx="168.0" cy="222.92586943258087" r="3.5" fill="#0284c7"/>
<circle cx="320.0" cy="222.5445393532642" r="3.5" fill="#0284c7"/>
<circle cx="472.0" cy="129.59533251982916" r="3.5" fill="#0284c7"/>
<circle cx="624.0" cy="129.59533251982916" r="3.5" fill="#0284c7"/>
<circle cx="776.0" cy="129.59533251982916" r="3.5" fill="#0284c7"/>
<polyline points="168.0,222.92586943258087 320.0,222.5445393532642 472.0,129.59533251982916 624.0,129.59533251982916 776.0,129.59533251982916" fill="none" stroke="#0284c7" stroke-width="2.5" stroke-dasharray="7 5"/>
<path d="M880,183h28" stroke="#0284c7" stroke-width="3" stroke-dasharray="7 5"/>
<text x="880" y="201" font-size="12">mimalloc / Native</text>
<circle cx="168.0" cy="222.73520439292253" r="3.5" fill="#0284c7"/>
<circle cx="320.0" cy="222.44920683343503" r="3.5" fill="#0284c7"/>
<circle cx="472.0" cy="129.50000000000003" r="3.5" fill="#0284c7"/>
<circle cx="624.0" cy="129.50000000000003" r="3.5" fill="#0284c7"/>
<circle cx="776.0" cy="129.50000000000003" r="3.5" fill="#0284c7"/>
<polyline points="168.0,222.73520439292253 320.0,222.44920683343503 472.0,129.50000000000003 624.0,129.50000000000003 776.0,129.50000000000003" fill="none" stroke="#0284c7" stroke-width="2.5"/>
<path d="M880,217h28" stroke="#0284c7" stroke-width="3"/>
<text x="880" y="235" font-size="12">mimalloc / UniMemory</text>
<circle cx="168.0" cy="233.60311165344723" r="3.5" fill="#d97706"/>
<circle cx="320.0" cy="233.50777913361804" r="3.5" fill="#d97706"/>
<circle cx="472.0" cy="225.4045149481391" r="3.5" fill="#d97706"/>
<circle cx="624.0" cy="225.4045149481391" r="3.5" fill="#d97706"/>
<circle cx="776.0" cy="225.4045149481391" r="3.5" fill="#d97706"/>
<polyline points="168.0,233.60311165344723 320.0,233.50777913361804 472.0,225.4045149481391 624.0,225.4045149481391 776.0,225.4045149481391" fill="none" stroke="#d97706" stroke-width="2.5" stroke-dasharray="7 5"/>
<path d="M880,251h28" stroke="#d97706" stroke-width="3" stroke-dasharray="7 5"/>
<text x="880" y="269" font-size="12">jemalloc / Native</text>
<circle cx="168.0" cy="231.50579621720564" r="3.5" fill="#d97706"/>
<circle cx="320.0" cy="231.50579621720564" r="3.5" fill="#d97706"/>
<circle cx="472.0" cy="223.49786455155584" r="3.5" fill="#d97706"/>
<circle cx="624.0" cy="223.49786455155584" r="3.5" fill="#d97706"/>
<circle cx="776.0" cy="223.49786455155584" r="3.5" fill="#d97706"/>
<polyline points="168.0,231.50579621720564 320.0,231.50579621720564 472.0,223.49786455155584 624.0,223.49786455155584 776.0,223.49786455155584" fill="none" stroke="#d97706" stroke-width="2.5"/>
<path d="M880,285h28" stroke="#d97706" stroke-width="3"/>
<text x="880" y="303" font-size="12">jemalloc / UniMemory</text>
<text x="92" y="505" font-size="13" fill="#475569">macos-arm64 · 16,384 slots; eight refill/free cycles; final phase has zero live requests</text>
<text x="92" y="528" font-size="12" fill="#64748b">Three fresh-process trials; median shown. See measurement method and raw data for scope and environment.</text>
</g></svg>
