<svg xmlns="http://www.w3.org/2000/svg" xml:lang="en" viewBox="0 0 1100 560" role="img">
<title>Cross-thread throughput</title>
<rect width="1100" height="560" fill="#ffffff"/>
<g font-family="system-ui,Segoe UI,Microsoft YaHei,PingFang SC,Noto Sans CJK SC,sans-serif" fill="#0f172a">
<text x="92" y="40" font-size="25" font-weight="650">Cross-thread throughput</text>
<text x="92" y="66" font-size="14" fill="#475569">Million allocation/free pairs per second · higher is better</text>
<path d="M92,442.0h760" stroke="#e2e8f0"/>
<text x="80" y="447.0" text-anchor="end" font-size="13">0</text>
<path d="M92,372.0h760" stroke="#e2e8f0"/>
<text x="80" y="377.0" text-anchor="end" font-size="13">2.1</text>
<path d="M92,302.0h760" stroke="#e2e8f0"/>
<text x="80" y="307.0" text-anchor="end" font-size="13">4.1</text>
<path d="M92,232.0h760" stroke="#e2e8f0"/>
<text x="80" y="237.0" text-anchor="end" font-size="13">6.2</text>
<path d="M92,162.0h760" stroke="#e2e8f0"/>
<text x="80" y="167.0" text-anchor="end" font-size="13">8.2</text>
<path d="M92,92.0h760" stroke="#e2e8f0"/>
<text x="80" y="97.0" text-anchor="end" font-size="13">10</text>
<text x="168.0" y="465" text-anchor="middle" font-size="14">1</text>
<text x="320.0" y="465" text-anchor="middle" font-size="14">2</text>
<text x="472.0" y="465" text-anchor="middle" font-size="14">4</text>
<text x="624.0" y="465" text-anchor="middle" font-size="14">8</text>
<text x="776.0" y="465" text-anchor="middle" font-size="14">16</text>
<circle cx="168.0" cy="129.50000000000003" r="3.5" fill="#64748b"/>
<circle cx="320.0" cy="192.27951711662172" r="3.5" fill="#64748b"/>
<circle cx="472.0" cy="239.54818686881916" r="3.5" fill="#64748b"/>
<circle cx="624.0" cy="245.6363274328559" r="3.5" fill="#64748b"/>
<circle cx="776.0" cy="216.3545398107658" r="3.5" fill="#64748b"/>
<polyline points="168.0,129.50000000000003 320.0,192.27951711662172 472.0,239.54818686881916 624.0,245.6363274328559 776.0,216.3545398107658" fill="none" stroke="#64748b" stroke-width="2.5" stroke-dasharray="7 5"/>
<path d="M880,115h28" stroke="#64748b" stroke-width="3" stroke-dasharray="7 5"/>
<text x="880" y="133" font-size="12">Standard / Native</text>
<circle cx="168.0" cy="168.11039009924326" r="3.5" fill="#64748b"/>
<circle cx="320.0" cy="236.87951100665987" r="3.5" fill="#64748b"/>
<circle cx="472.0" cy="265.2533282926148" r="3.5" fill="#64748b"/>
<circle cx="624.0" cy="255.10642735255357" r="3.5" fill="#64748b"/>
<circle cx="776.0" cy="232.44365142231183" r="3.5" fill="#64748b"/>
<polyline points="168.0,168.11039009924326 320.0,236.87951100665987 472.0,265.2533282926148 624.0,255.10642735255357 776.0,232.44365142231183" fill="none" stroke="#64748b" stroke-width="2.5"/>
<path d="M880,149h28" stroke="#64748b" stroke-width="3"/>
<text x="880" y="167" font-size="12">Standard / API + stats</text>
<text x="472" y="487" text-anchor="middle" font-size="13">Threads</text>
<text x="92" y="505" font-size="13" fill="#475569">windows-x64/standard/ON · 4 logical CPUs · e355001f2ad8 · 64 B cross-thread workload</text>
<text x="92" y="528" font-size="12" fill="#64748b">Three fresh-process trials; median shown. See measurement method and raw data for scope and environment.</text>
</g></svg>
