<svg xmlns="http://www.w3.org/2000/svg" viewBox="0 0 1100 560" role="img">
<title>Mixed-lifetime memory retention</title>
<rect width="1100" height="560" fill="#ffffff"/>
<g font-family="system-ui,Segoe UI,sans-serif" fill="#0f172a">
<text x="92" y="40" font-size="25" font-weight="650">Mixed-lifetime memory retention</text>
<text x="92" y="66" font-size="14" fill="#475569">Resident MiB · not a fragmentation or leak rate</text>
<path d="M92,442.0h760" stroke="#e2e8f0"/>
<text x="80" y="447.0" text-anchor="end" font-size="13">0</text>
<path d="M92,372.0h760" stroke="#e2e8f0"/>
<text x="80" y="377.0" text-anchor="end" font-size="13">11</text>
<path d="M92,302.0h760" stroke="#e2e8f0"/>
<text x="80" y="307.0" text-anchor="end" font-size="13">23</text>
<path d="M92,232.0h760" stroke="#e2e8f0"/>
<text x="80" y="237.0" text-anchor="end" font-size="13">34</text>
<path d="M92,162.0h760" stroke="#e2e8f0"/>
<text x="80" y="167.0" text-anchor="end" font-size="13">46</text>
<path d="M92,92.0h760" stroke="#e2e8f0"/>
<text x="80" y="97.0" text-anchor="end" font-size="13">57</text>
<text x="168.0" y="465" text-anchor="middle" font-size="14">dense</text>
<text x="320.0" y="465" text-anchor="middle" font-size="14">sparse</text>
<text x="472.0" y="465" text-anchor="middle" font-size="14">churn_dense</text>
<text x="624.0" y="465" text-anchor="middle" font-size="14">churn_sparse</text>
<text x="776.0" y="465" text-anchor="middle" font-size="14">freed</text>
<circle cx="168.0" cy="244.57868136917068" r="3.5" fill="#64748b"/>
<circle cx="320.0" cy="254.43778237231032" r="3.5" fill="#64748b"/>
<circle cx="472.0" cy="238.38084845700286" r="3.5" fill="#64748b"/>
<circle cx="624.0" cy="253.71988666819817" r="3.5" fill="#64748b"/>
<circle cx="776.0" cy="406.2966536488246" r="3.5" fill="#64748b"/>
<polyline points="168.0,244.57868136917068 320.0,254.43778237231032 472.0,238.38084845700286 624.0,253.71988666819817 776.0,406.2966536488246" fill="none" stroke="#64748b" stroke-width="2.5" stroke-dasharray="7 5"/>
<path d="M880,115h28" stroke="#64748b" stroke-width="3" stroke-dasharray="7 5"/>
<text x="880" y="133" font-size="12">standard / Native</text>
<circle cx="168.0" cy="244.55475151236695" r="3.5" fill="#64748b"/>
<circle cx="320.0" cy="254.46171222911406" r="3.5" fill="#64748b"/>
<circle cx="472.0" cy="238.38084845700286" r="3.5" fill="#64748b"/>
<circle cx="624.0" cy="253.69595681139444" r="3.5" fill="#64748b"/>
<circle cx="776.0" cy="406.34451336243205" r="3.5" fill="#64748b"/>
<polyline points="168.0,244.55475151236695 320.0,254.46171222911406 472.0,238.38084845700286 624.0,253.69595681139444 776.0,406.34451336243205" fill="none" stroke="#64748b" stroke-width="2.5"/>
<path d="M880,149h28" stroke="#64748b" stroke-width="3"/>
<text x="880" y="167" font-size="12">standard / UniMemory</text>
<circle cx="168.0" cy="219.76341986369556" r="3.5" fill="#0284c7"/>
<circle cx="320.0" cy="219.42840186844325" r="3.5" fill="#0284c7"/>
<circle cx="472.0" cy="129.50000000000003" r="3.5" fill="#0284c7"/>
<circle cx="624.0" cy="129.50000000000003" r="3.5" fill="#0284c7"/>
<circle cx="776.0" cy="129.50000000000003" r="3.5" fill="#0284c7"/>
<polyline points="168.0,219.76341986369556 320.0,219.42840186844325 472.0,129.50000000000003 624.0,129.50000000000003 776.0,129.50000000000003" fill="none" stroke="#0284c7" stroke-width="2.5" stroke-dasharray="7 5"/>
<path d="M880,183h28" stroke="#0284c7" stroke-width="3" stroke-dasharray="7 5"/>
<text x="880" y="201" font-size="12">mimalloc / Native</text>
<circle cx="168.0" cy="219.76341986369556" r="3.5" fill="#0284c7"/>
<circle cx="320.0" cy="219.42840186844325" r="3.5" fill="#0284c7"/>
<circle cx="472.0" cy="129.52392985680376" r="3.5" fill="#0284c7"/>
<circle cx="624.0" cy="129.52392985680376" r="3.5" fill="#0284c7"/>
<circle cx="776.0" cy="129.52392985680376" r="3.5" fill="#0284c7"/>
<polyline points="168.0,219.76341986369556 320.0,219.42840186844325 472.0,129.52392985680376 624.0,129.52392985680376 776.0,129.52392985680376" fill="none" stroke="#0284c7" stroke-width="2.5"/>
<path d="M880,217h28" stroke="#0284c7" stroke-width="3"/>
<text x="880" y="235" font-size="12">mimalloc / UniMemory</text>
<circle cx="168.0" cy="215.2406769277893" r="3.5" fill="#d97706"/>
<circle cx="320.0" cy="214.88172907573323" r="3.5" fill="#d97706"/>
<circle cx="472.0" cy="207.58312275059347" r="3.5" fill="#d97706"/>
<circle cx="624.0" cy="207.58312275059347" r="3.5" fill="#d97706"/>
<circle cx="776.0" cy="207.58312275059347" r="3.5" fill="#d97706"/>
<polyline points="168.0,215.2406769277893 320.0,214.88172907573323 472.0,207.58312275059347 624.0,207.58312275059347 776.0,207.58312275059347" fill="none" stroke="#d97706" stroke-width="2.5" stroke-dasharray="7 5"/>
<path d="M880,251h28" stroke="#d97706" stroke-width="3" stroke-dasharray="7 5"/>
<text x="880" y="269" font-size="12">jemalloc / Native</text>
<circle cx="168.0" cy="213.58951680833147" r="3.5" fill="#d97706"/>
<circle cx="320.0" cy="213.23056895627536" r="3.5" fill="#d97706"/>
<circle cx="472.0" cy="205.83624320392067" r="3.5" fill="#d97706"/>
<circle cx="624.0" cy="205.83624320392067" r="3.5" fill="#d97706"/>
<circle cx="776.0" cy="205.83624320392067" r="3.5" fill="#d97706"/>
<polyline points="168.0,213.58951680833147 320.0,213.23056895627536 472.0,205.83624320392067 624.0,205.83624320392067 776.0,205.83624320392067" fill="none" stroke="#d97706" stroke-width="2.5"/>
<path d="M880,285h28" stroke="#d97706" stroke-width="3"/>
<text x="880" y="303" font-size="12">jemalloc / UniMemory</text>
<text x="92" y="505" font-size="13" fill="#475569">windows-x64 · 16,384 slots; eight refill/free cycles; final phase has zero live requests</text>
<text x="92" y="528" font-size="12" fill="#64748b">Three fresh-process trials; median shown. See measurement method and raw data for scope and environment.</text>
</g></svg>
