<svg xmlns="http://www.w3.org/2000/svg" xml:lang="en" viewBox="0 0 1100 560" role="img">
<title>Cross-thread throughput</title>
<rect width="1100" height="560" fill="#ffffff"/>
<g font-family="system-ui,Segoe UI,Microsoft YaHei,PingFang SC,Noto Sans CJK SC,sans-serif" fill="#0f172a">
<text x="92" y="40" font-size="25" font-weight="650">Cross-thread throughput</text>
<text x="92" y="66" font-size="14" fill="#475569">Million allocation/free pairs per second · higher is better</text>
<path d="M92,442.0h760" stroke="#e2e8f0"/>
<text x="80" y="447.0" text-anchor="end" font-size="13">0</text>
<path d="M92,372.0h760" stroke="#e2e8f0"/>
<text x="80" y="377.0" text-anchor="end" font-size="13">9.4</text>
<path d="M92,302.0h760" stroke="#e2e8f0"/>
<text x="80" y="307.0" text-anchor="end" font-size="13">19</text>
<path d="M92,232.0h760" stroke="#e2e8f0"/>
<text x="80" y="237.0" text-anchor="end" font-size="13">28</text>
<path d="M92,162.0h760" stroke="#e2e8f0"/>
<text x="80" y="167.0" text-anchor="end" font-size="13">37</text>
<path d="M92,92.0h760" stroke="#e2e8f0"/>
<text x="80" y="97.0" text-anchor="end" font-size="13">47</text>
<text x="168.0" y="465" text-anchor="middle" font-size="14">1</text>
<text x="320.0" y="465" text-anchor="middle" font-size="14">2</text>
<text x="472.0" y="465" text-anchor="middle" font-size="14">4</text>
<text x="624.0" y="465" text-anchor="middle" font-size="14">8</text>
<text x="776.0" y="465" text-anchor="middle" font-size="14">16</text>
<circle cx="168.0" cy="153.5889124743339" r="3.5" fill="#0284c7"/>
<circle cx="320.0" cy="135.9860804659868" r="3.5" fill="#0284c7"/>
<circle cx="472.0" cy="190.42264027224044" r="3.5" fill="#0284c7"/>
<circle cx="624.0" cy="129.50000000000006" r="3.5" fill="#0284c7"/>
<circle cx="776.0" cy="154.29787180579424" r="3.5" fill="#0284c7"/>
<polyline points="168.0,153.5889124743339 320.0,135.9860804659868 472.0,190.42264027224044 624.0,129.50000000000006 776.0,154.29787180579424" fill="none" stroke="#0284c7" stroke-width="2.5" stroke-dasharray="7 5"/>
<path d="M880,115h28" stroke="#0284c7" stroke-width="3" stroke-dasharray="7 5"/>
<text x="880" y="133" font-size="12">mimalloc / Native</text>
<circle cx="168.0" cy="151.53233213518217" r="3.5" fill="#0284c7"/>
<circle cx="320.0" cy="281.07520592725905" r="3.5" fill="#0284c7"/>
<circle cx="472.0" cy="307.42037399549145" r="3.5" fill="#0284c7"/>
<circle cx="624.0" cy="317.9036987933931" r="3.5" fill="#0284c7"/>
<circle cx="776.0" cy="300.3464854762053" r="3.5" fill="#0284c7"/>
<polyline points="168.0,151.53233213518217 320.0,281.07520592725905 472.0,307.42037399549145 624.0,317.9036987933931 776.0,300.3464854762053" fill="none" stroke="#0284c7" stroke-width="2.5"/>
<path d="M880,149h28" stroke="#0284c7" stroke-width="3"/>
<text x="880" y="167" font-size="12">mimalloc / API + stats</text>
<text x="472" y="487" text-anchor="middle" font-size="13">Threads</text>
<text x="92" y="505" font-size="13" fill="#475569">linux-x64/mimalloc/ON · 4 logical CPUs · e355001f2ad8 · 64 B cross-thread workload</text>
<text x="92" y="528" font-size="12" fill="#64748b">Three fresh-process trials; median shown. See measurement method and raw data for scope and environment.</text>
</g></svg>
