<svg xmlns="http://www.w3.org/2000/svg" xml:lang="en" viewBox="0 0 1100 560" role="img">
<title>Peak resident memory</title>
<rect width="1100" height="560" fill="#ffffff"/>
<g font-family="system-ui,Segoe UI,Microsoft YaHei,PingFang SC,Noto Sans CJK SC,sans-serif" fill="#0f172a">
<text x="92" y="40" font-size="25" font-weight="650">Peak resident memory</text>
<text x="92" y="66" font-size="14" fill="#475569">MiB · lower is better</text>
<path d="M92,442.0h760" stroke="#e2e8f0"/>
<text x="80" y="447.0" text-anchor="end" font-size="13">0</text>
<path d="M92,372.0h760" stroke="#e2e8f0"/>
<text x="80" y="377.0" text-anchor="end" font-size="13">1.5</text>
<path d="M92,302.0h760" stroke="#e2e8f0"/>
<text x="80" y="307.0" text-anchor="end" font-size="13">3.1</text>
<path d="M92,232.0h760" stroke="#e2e8f0"/>
<text x="80" y="237.0" text-anchor="end" font-size="13">4.6</text>
<path d="M92,162.0h760" stroke="#e2e8f0"/>
<text x="80" y="167.0" text-anchor="end" font-size="13">6.1</text>
<path d="M92,92.0h760" stroke="#e2e8f0"/>
<text x="80" y="97.0" text-anchor="end" font-size="13">7.6</text>
<text x="168.0" y="465" text-anchor="middle" font-size="14">1</text>
<text x="320.0" y="465" text-anchor="middle" font-size="14">2</text>
<text x="472.0" y="465" text-anchor="middle" font-size="14">4</text>
<text x="624.0" y="465" text-anchor="middle" font-size="14">8</text>
<text x="776.0" y="465" text-anchor="middle" font-size="14">16</text>
<circle cx="168.0" cy="242.7946735395189" r="3.5" fill="#d97706"/>
<circle cx="320.0" cy="236.8883161512028" r="3.5" fill="#d97706"/>
<circle cx="472.0" cy="223.46477663230243" r="3.5" fill="#d97706"/>
<circle cx="624.0" cy="194.290950744559" r="3.5" fill="#d97706"/>
<circle cx="776.0" cy="140.7757731958763" r="3.5" fill="#d97706"/>
<polyline points="168.0,242.7946735395189 320.0,236.8883161512028 472.0,223.46477663230243 624.0,194.290950744559 776.0,140.7757731958763" fill="none" stroke="#d97706" stroke-width="2.5" stroke-dasharray="7 5"/>
<path d="M880,115h28" stroke="#d97706" stroke-width="3" stroke-dasharray="7 5"/>
<text x="880" y="133" font-size="12">jemalloc / Native</text>
<circle cx="168.0" cy="232.2348224513173" r="3.5" fill="#d97706"/>
<circle cx="320.0" cy="226.86540664375718" r="3.5" fill="#d97706"/>
<circle cx="472.0" cy="212.5469644902635" r="3.5" fill="#d97706"/>
<circle cx="624.0" cy="183.7310996563574" r="3.5" fill="#d97706"/>
<circle cx="776.0" cy="129.50000000000003" r="3.5" fill="#d97706"/>
<polyline points="168.0,232.2348224513173 320.0,226.86540664375718 472.0,212.5469644902635 624.0,183.7310996563574 776.0,129.50000000000003" fill="none" stroke="#d97706" stroke-width="2.5"/>
<path d="M880,149h28" stroke="#d97706" stroke-width="3"/>
<text x="880" y="167" font-size="12">jemalloc / API + stats</text>
<text x="472" y="487" text-anchor="middle" font-size="13">Threads</text>
<text x="92" y="505" font-size="13" fill="#475569">windows-x64/jemalloc/ON · 4 logical CPUs · e355001f2ad8 · 64 B cross-thread workload</text>
<text x="92" y="528" font-size="12" fill="#64748b">Three fresh-process trials; median shown. See measurement method and raw data for scope and environment.</text>
</g></svg>
